<svg xmlns="http://www.w3.org/2000/svg" xmlns:xlink="http://www.w3.org/1999/xlink" width="500" zoomAndPan="magnify" viewBox="0 0 375 374.999991" height="500" preserveAspectRatio="xMidYMid meet" version="1.0"><defs><g/></defs><path stroke-linecap="butt" transform="matrix(0.75, 0, 0, 0.75, 127.499996, 228.304379)" fill="none" stroke-linejoin="miter" d="M 3.000005 2.000411 L 157.000015 2.000411 " stroke="#000000" stroke-width="4" stroke-opacity="1" stroke-miterlimit="4"/><path stroke-linecap="round" transform="matrix(0.75, 0, 0, 0.75, 127.499996, 228.304379)" fill="none" stroke-linejoin="round" d="M 2.000005 -3.999589 L 2.000005 8.000411 " stroke="#000000" stroke-width="4" stroke-opacity="1" stroke-miterlimit="4"/><path stroke-linecap="round" transform="matrix(0.75, 0, 0, 0.75, 127.499996, 228.304379)" fill="none" stroke-linejoin="round" d="M 158.000016 -3.999589 L 158.000016 8.000411 " stroke="#000000" stroke-width="4" stroke-opacity="1" stroke-miterlimit="4"/><g fill="#004aad" fill-opacity="1"><g transform="translate(114.41905, 127.417448)"><g><path d="M 29.734375 -37.234375 C 29.734375 -34.335938 29.019531 -31.703125 27.59375 -29.328125 C 26.164062 -26.953125 24.253906 -24.96875 21.859375 -23.375 C 23.117188 -23.125 24.210938 -22.691406 25.140625 -22.078125 C 26.066406 -21.472656 26.832031 -20.726562 27.4375 -19.84375 C 28.050781 -18.957031 28.515625 -17.957031 28.828125 -16.84375 C 29.140625 -15.738281 29.296875 -14.578125 29.296875 -13.359375 C 29.296875 -10.960938 28.738281 -8.867188 27.625 -7.078125 C 26.507812 -5.296875 25.070312 -3.828125 23.3125 -2.671875 C 21.550781 -1.515625 19.585938 -0.65625 17.421875 -0.09375 C 15.253906 0.46875 13.101562 0.75 10.96875 0.75 C 9.789062 0.75 8.613281 0.664062 7.4375 0.5 C 6.257812 0.332031 5.144531 0.0390625 4.09375 -0.375 C 3.71875 -0.5 3.398438 -1.015625 3.140625 -1.921875 C 2.890625 -2.828125 2.691406 -3.929688 2.546875 -5.234375 C 2.398438 -6.535156 2.285156 -7.941406 2.203125 -9.453125 C 2.117188 -10.960938 2.054688 -12.410156 2.015625 -13.796875 C 1.972656 -15.179688 1.953125 -16.398438 1.953125 -17.453125 C 1.953125 -18.503906 1.953125 -19.238281 1.953125 -19.65625 C 1.953125 -21.125 1.953125 -22.601562 1.953125 -24.09375 C 1.953125 -25.582031 1.992188 -27.066406 2.078125 -28.546875 C 2.078125 -28.921875 2.085938 -29.503906 2.109375 -30.296875 C 2.128906 -31.097656 2.148438 -31.992188 2.171875 -32.984375 C 2.191406 -33.972656 2.234375 -35.007812 2.296875 -36.09375 C 2.359375 -37.1875 2.441406 -38.207031 2.546875 -39.15625 C 2.648438 -40.101562 2.796875 -40.910156 2.984375 -41.578125 C 3.179688 -42.253906 3.40625 -42.675781 3.65625 -42.84375 C 4.625 -43.46875 5.691406 -44.0625 6.859375 -44.625 C 8.035156 -45.195312 9.253906 -45.691406 10.515625 -46.109375 C 11.773438 -46.535156 13.035156 -46.875 14.296875 -47.125 C 15.554688 -47.375 16.753906 -47.5 17.890625 -47.5 C 19.441406 -47.5 20.941406 -47.28125 22.390625 -46.84375 C 23.847656 -46.40625 25.109375 -45.742188 26.171875 -44.859375 C 27.242188 -43.972656 28.101562 -42.890625 28.75 -41.609375 C 29.40625 -40.328125 29.734375 -38.867188 29.734375 -37.234375 Z M 19.28125 -33.890625 C 19.28125 -34.609375 19.054688 -35.132812 18.609375 -35.46875 C 18.171875 -35.800781 17.597656 -35.96875 16.890625 -35.96875 C 16.296875 -35.96875 15.671875 -35.84375 15.015625 -35.59375 C 14.367188 -35.34375 13.816406 -35.007812 13.359375 -34.59375 C 13.234375 -34.46875 13.117188 -34.109375 13.015625 -33.515625 C 12.910156 -32.929688 12.820312 -32.269531 12.75 -31.53125 C 12.6875 -30.800781 12.644531 -30.109375 12.625 -29.453125 C 12.601562 -28.804688 12.59375 -28.375 12.59375 -28.15625 C 12.59375 -28.070312 12.59375 -27.9375 12.59375 -27.75 C 12.59375 -27.5625 12.601562 -27.363281 12.625 -27.15625 C 12.644531 -26.945312 12.675781 -26.753906 12.71875 -26.578125 C 12.769531 -26.410156 12.835938 -26.328125 12.921875 -26.328125 C 13.628906 -26.328125 14.359375 -26.585938 15.109375 -27.109375 C 15.867188 -27.640625 16.550781 -28.289062 17.15625 -29.0625 C 17.769531 -29.84375 18.273438 -30.675781 18.671875 -31.5625 C 19.078125 -32.445312 19.28125 -33.222656 19.28125 -33.890625 Z M 19.03125 -15.6875 C 19.03125 -16.40625 18.773438 -16.910156 18.265625 -17.203125 C 17.765625 -17.492188 17.195312 -17.640625 16.5625 -17.640625 C 15.976562 -17.640625 15.359375 -17.503906 14.703125 -17.234375 C 14.054688 -16.960938 13.523438 -16.632812 13.109375 -16.25 C 12.984375 -16.164062 12.890625 -15.957031 12.828125 -15.625 C 12.765625 -15.289062 12.71875 -14.921875 12.6875 -14.515625 C 12.664062 -14.117188 12.644531 -13.742188 12.625 -13.390625 C 12.601562 -13.035156 12.59375 -12.789062 12.59375 -12.65625 C 12.59375 -12.570312 12.59375 -12.40625 12.59375 -12.15625 C 12.59375 -11.90625 12.601562 -11.644531 12.625 -11.375 C 12.644531 -11.101562 12.6875 -10.847656 12.75 -10.609375 C 12.820312 -10.378906 12.898438 -10.265625 12.984375 -10.265625 C 13.566406 -10.265625 14.210938 -10.429688 14.921875 -10.765625 C 15.640625 -11.109375 16.300781 -11.53125 16.90625 -12.03125 C 17.519531 -12.539062 18.023438 -13.117188 18.421875 -13.765625 C 18.828125 -14.421875 19.03125 -15.0625 19.03125 -15.6875 Z M 19.03125 -15.6875 "/></g></g></g><g fill="#004aad" fill-opacity="1"><g transform="translate(145.099915, 127.417448)"><g><path d="M 33.703125 -9.328125 C 33.703125 -8.484375 33.628906 -7.472656 33.484375 -6.296875 C 33.335938 -5.117188 33.050781 -3.992188 32.625 -2.921875 C 32.207031 -1.859375 31.640625 -0.957031 30.921875 -0.21875 C 30.210938 0.507812 29.269531 0.875 28.09375 0.875 C 26.539062 0.875 25.375 0.3125 24.59375 -0.8125 C 23.820312 -1.945312 23.265625 -3.300781 22.921875 -4.875 C 22.585938 -6.457031 22.390625 -8.066406 22.328125 -9.703125 C 22.265625 -11.335938 22.210938 -12.640625 22.171875 -13.609375 C 19.148438 -13.109375 16.171875 -12.664062 13.234375 -12.28125 C 13.148438 -11.320312 12.96875 -10.125 12.6875 -8.6875 C 12.414062 -7.257812 11.992188 -5.882812 11.421875 -4.5625 C 10.859375 -3.238281 10.125 -2.09375 9.21875 -1.125 C 8.320312 -0.164062 7.222656 0.3125 5.921875 0.3125 C 4.910156 0.3125 4.117188 -0.0507812 3.546875 -0.78125 C 2.984375 -1.519531 2.554688 -2.394531 2.265625 -3.40625 C 1.972656 -4.414062 1.796875 -5.453125 1.734375 -6.515625 C 1.671875 -7.585938 1.640625 -8.484375 1.640625 -9.203125 C 1.640625 -11.597656 1.828125 -13.957031 2.203125 -16.28125 C 2.578125 -18.613281 3.019531 -20.9375 3.53125 -23.25 C 3.78125 -24.46875 4.113281 -25.894531 4.53125 -27.53125 C 4.957031 -29.164062 5.472656 -30.851562 6.078125 -32.59375 C 6.691406 -34.34375 7.40625 -36.066406 8.21875 -37.765625 C 9.039062 -39.472656 9.972656 -41 11.015625 -42.34375 C 12.066406 -43.6875 13.265625 -44.773438 14.609375 -45.609375 C 15.960938 -46.453125 17.457031 -46.875 19.09375 -46.875 C 20.6875 -46.875 22.070312 -46.515625 23.25 -45.796875 C 24.425781 -45.085938 25.453125 -44.144531 26.328125 -42.96875 C 27.210938 -41.789062 27.945312 -40.457031 28.53125 -38.96875 C 29.125 -37.476562 29.617188 -35.960938 30.015625 -34.421875 C 30.421875 -32.890625 30.757812 -31.390625 31.03125 -29.921875 C 31.300781 -28.453125 31.539062 -27.148438 31.75 -26.015625 C 32.300781 -23.285156 32.765625 -20.523438 33.140625 -17.734375 C 33.515625 -14.941406 33.703125 -12.140625 33.703125 -9.328125 Z M 21.546875 -24.640625 C 21.546875 -25.140625 21.515625 -25.96875 21.453125 -27.125 C 21.390625 -28.28125 21.253906 -29.4375 21.046875 -30.59375 C 20.835938 -31.75 20.507812 -32.773438 20.0625 -33.671875 C 19.625 -34.578125 19.023438 -35.03125 18.265625 -35.03125 C 17.847656 -35.03125 17.445312 -34.742188 17.0625 -34.171875 C 16.6875 -33.609375 16.351562 -32.894531 16.0625 -32.03125 C 15.769531 -31.175781 15.507812 -30.222656 15.28125 -29.171875 C 15.050781 -28.117188 14.847656 -27.109375 14.671875 -26.140625 C 14.503906 -25.179688 14.378906 -24.3125 14.296875 -23.53125 C 14.210938 -22.75 14.148438 -22.191406 14.109375 -21.859375 C 16.628906 -22.066406 19.109375 -22.382812 21.546875 -22.8125 Z M 21.546875 -24.640625 "/></g></g></g><g fill="#004aad" fill-opacity="1"><g transform="translate(181.009756, 127.417448)"><g><path d="M 32.640625 -33.140625 C 32.640625 -30.242188 31.96875 -27.640625 30.625 -25.328125 C 29.28125 -23.015625 27.492188 -20.976562 25.265625 -19.21875 C 25.929688 -18.207031 26.625 -17.03125 27.34375 -15.6875 C 28.0625 -14.34375 28.703125 -12.925781 29.265625 -11.4375 C 29.828125 -9.945312 30.285156 -8.453125 30.640625 -6.953125 C 31.003906 -5.460938 31.1875 -4.085938 31.1875 -2.828125 C 31.1875 -1.484375 30.859375 -0.28125 30.203125 0.78125 C 29.554688 1.851562 28.457031 2.390625 26.90625 2.390625 C 25.601562 2.390625 24.476562 1.757812 23.53125 0.5 C 22.582031 -0.757812 21.738281 -2.257812 21 -4 C 20.269531 -5.738281 19.597656 -7.507812 18.984375 -9.3125 C 18.378906 -11.125 17.804688 -12.578125 17.265625 -13.671875 C 16.503906 -13.421875 15.765625 -13.132812 15.046875 -12.8125 C 14.335938 -12.5 13.609375 -12.195312 12.859375 -11.90625 C 12.816406 -10.976562 12.738281 -9.707031 12.625 -8.09375 C 12.519531 -6.476562 12.289062 -4.867188 11.9375 -3.265625 C 11.582031 -1.671875 11.046875 -0.289062 10.328125 0.875 C 9.617188 2.050781 8.632812 2.640625 7.375 2.640625 C 5.988281 2.640625 4.914062 2.070312 4.15625 0.9375 C 3.40625 -0.1875 2.867188 -1.523438 2.546875 -3.078125 C 2.234375 -4.640625 2.054688 -6.226562 2.015625 -7.84375 C 1.972656 -9.457031 1.953125 -10.726562 1.953125 -11.65625 C 1.953125 -13.625 1.992188 -15.5625 2.078125 -17.46875 C 2.160156 -19.382812 2.203125 -21.332031 2.203125 -23.3125 C 2.203125 -25.113281 2.171875 -26.914062 2.109375 -28.71875 C 2.046875 -30.53125 2.015625 -32.359375 2.015625 -34.203125 C 2.015625 -34.628906 2.015625 -35.164062 2.015625 -35.8125 C 2.015625 -36.46875 2.046875 -37.140625 2.109375 -37.828125 C 2.171875 -38.523438 2.242188 -39.1875 2.328125 -39.8125 C 2.410156 -40.445312 2.554688 -40.953125 2.765625 -41.328125 C 3.191406 -42.210938 4.148438 -43.050781 5.640625 -43.84375 C 7.128906 -44.644531 8.765625 -45.347656 10.546875 -45.953125 C 12.335938 -46.566406 14.082031 -47.050781 15.78125 -47.40625 C 17.476562 -47.769531 18.75 -47.953125 19.59375 -47.953125 C 21.738281 -47.953125 23.628906 -47.550781 25.265625 -46.75 C 26.898438 -45.945312 28.265625 -44.863281 29.359375 -43.5 C 30.453125 -42.132812 31.269531 -40.554688 31.8125 -38.765625 C 32.363281 -36.984375 32.640625 -35.109375 32.640625 -33.140625 Z M 20.984375 -32.265625 C 20.984375 -33.347656 20.726562 -34.171875 20.21875 -34.734375 C 19.71875 -35.304688 18.898438 -35.59375 17.765625 -35.59375 C 16.921875 -35.59375 16.066406 -35.445312 15.203125 -35.15625 C 14.347656 -34.863281 13.566406 -34.523438 12.859375 -34.140625 C 13.023438 -30.828125 13.085938 -27.53125 13.046875 -24.25 C 13.921875 -24.550781 14.820312 -24.929688 15.75 -25.390625 C 16.675781 -25.847656 17.523438 -26.410156 18.296875 -27.078125 C 19.078125 -27.753906 19.71875 -28.515625 20.21875 -29.359375 C 20.726562 -30.203125 20.984375 -31.171875 20.984375 -32.265625 Z M 20.984375 -32.265625 "/></g></g></g><g fill="#004aad" fill-opacity="1"><g transform="translate(213.95861, 127.417448)"><g><path d="M 23.6875 -42.78125 C 23.6875 -41.976562 23.507812 -41.257812 23.15625 -40.625 C 22.800781 -40 22.328125 -39.46875 21.734375 -39.03125 C 21.148438 -38.59375 20.5 -38.222656 19.78125 -37.921875 C 19.070312 -37.628906 18.378906 -37.421875 17.703125 -37.296875 C 17.617188 -32.546875 17.441406 -27.96875 17.171875 -23.5625 C 16.898438 -19.15625 16.46875 -14.597656 15.875 -9.890625 L 16.25 -9.890625 C 16.925781 -9.890625 17.585938 -9.816406 18.234375 -9.671875 C 18.890625 -9.523438 19.476562 -9.269531 20 -8.90625 C 20.53125 -8.550781 20.953125 -8.109375 21.265625 -7.578125 C 21.578125 -7.054688 21.734375 -6.421875 21.734375 -5.671875 C 21.734375 -4.703125 21.425781 -3.859375 20.8125 -3.140625 C 20.207031 -2.429688 19.410156 -1.820312 18.421875 -1.3125 C 17.441406 -0.8125 16.34375 -0.394531 15.125 -0.0625 C 13.90625 0.269531 12.6875 0.53125 11.46875 0.71875 C 10.25 0.914062 9.09375 1.054688 8 1.140625 C 6.90625 1.222656 6.023438 1.265625 5.359375 1.265625 C 4.847656 1.265625 4.222656 1.242188 3.484375 1.203125 C 2.753906 1.160156 2.0625 1.03125 1.40625 0.8125 C 0.757812 0.601562 0.207031 0.289062 -0.25 -0.125 C -0.707031 -0.539062 -0.9375 -1.109375 -0.9375 -1.828125 C -0.9375 -2.710938 -0.757812 -3.5 -0.40625 -4.1875 C -0.0507812 -4.882812 0.414062 -5.503906 1 -6.046875 C 1.59375 -6.597656 2.253906 -7.039062 2.984375 -7.375 C 3.722656 -7.707031 4.472656 -7.957031 5.234375 -8.125 C 5.523438 -10.4375 5.796875 -12.734375 6.046875 -15.015625 C 6.296875 -17.304688 6.460938 -19.628906 6.546875 -21.984375 C 6.628906 -24.378906 6.710938 -26.742188 6.796875 -29.078125 C 6.890625 -31.410156 6.976562 -33.75 7.0625 -36.09375 C 6.757812 -36.050781 6.484375 -36.019531 6.234375 -36 C 5.984375 -35.976562 5.753906 -35.96875 5.546875 -35.96875 C 4.953125 -35.96875 4.316406 -36.03125 3.640625 -36.15625 C 2.972656 -36.289062 2.34375 -36.515625 1.75 -36.828125 C 1.164062 -37.140625 0.675781 -37.523438 0.28125 -37.984375 C -0.113281 -38.453125 -0.3125 -39.039062 -0.3125 -39.75 C -0.3125 -41.175781 0.285156 -42.351562 1.484375 -43.28125 C 2.679688 -44.207031 4.109375 -44.921875 5.765625 -45.421875 C 7.421875 -45.929688 9.109375 -46.28125 10.828125 -46.46875 C 12.554688 -46.65625 13.945312 -46.75 15 -46.75 C 15.582031 -46.75 16.359375 -46.707031 17.328125 -46.625 C 18.296875 -46.539062 19.25 -46.347656 20.1875 -46.046875 C 21.132812 -45.753906 21.953125 -45.359375 22.640625 -44.859375 C 23.335938 -44.359375 23.6875 -43.664062 23.6875 -42.78125 Z M 23.6875 -42.78125 "/></g></g></g><g fill="#004aad" fill-opacity="1"><g transform="translate(236.63851, 127.417448)"><g><path d="M 32.390625 -12.328125 C 32.390625 -8.234375 30.90625 -5.046875 27.9375 -2.765625 C 24.96875 -0.492188 20.96875 0.640625 15.9375 0.640625 C 13.351562 0.640625 10.960938 0.445312 8.765625 0.0625 C 6.578125 -0.320312 4.753906 -0.859375 3.296875 -1.546875 L 3.296875 -7.09375 C 4.835938 -6.40625 6.757812 -5.78125 9.0625 -5.21875 C 11.363281 -4.664062 13.738281 -4.390625 16.1875 -4.390625 C 19.59375 -4.390625 22.175781 -5.054688 23.9375 -6.390625 C 25.695312 -7.722656 26.578125 -9.53125 26.578125 -11.8125 C 26.578125 -13.3125 26.253906 -14.578125 25.609375 -15.609375 C 24.960938 -16.640625 23.84375 -17.582031 22.25 -18.4375 C 20.664062 -19.300781 18.492188 -20.253906 15.734375 -21.296875 C 11.785156 -22.710938 8.820312 -24.453125 6.84375 -26.515625 C 4.863281 -28.578125 3.875 -31.394531 3.875 -34.96875 C 3.875 -37.375 4.492188 -39.457031 5.734375 -41.21875 C 6.984375 -42.988281 8.703125 -44.34375 10.890625 -45.28125 C 13.085938 -46.226562 15.648438 -46.703125 18.578125 -46.703125 C 21.078125 -46.703125 23.378906 -46.46875 25.484375 -46 C 27.585938 -45.53125 29.523438 -44.90625 31.296875 -44.125 L 29.484375 -39.15625 C 27.890625 -39.84375 26.144531 -40.421875 24.25 -40.890625 C 22.363281 -41.367188 20.429688 -41.609375 18.453125 -41.609375 C 15.566406 -41.609375 13.390625 -40.992188 11.921875 -39.765625 C 10.460938 -38.546875 9.734375 -36.925781 9.734375 -34.90625 C 9.734375 -33.351562 10.054688 -32.0625 10.703125 -31.03125 C 11.347656 -30 12.398438 -29.0625 13.859375 -28.21875 C 15.328125 -27.382812 17.3125 -26.515625 19.8125 -25.609375 C 22.519531 -24.617188 24.804688 -23.550781 26.671875 -22.40625 C 28.546875 -21.269531 29.96875 -19.90625 30.9375 -18.3125 C 31.90625 -16.726562 32.390625 -14.734375 32.390625 -12.328125 Z M 23.09375 8.96875 C 23.09375 11.03125 22.296875 12.628906 20.703125 13.765625 C 19.117188 14.910156 16.734375 15.484375 13.546875 15.484375 C 12.171875 15.484375 11.097656 15.375 10.328125 15.15625 L 10.328125 11.609375 C 10.710938 11.691406 11.226562 11.765625 11.875 11.828125 C 12.519531 11.898438 13.144531 11.9375 13.75 11.9375 C 15.289062 11.9375 16.46875 11.726562 17.28125 11.3125 C 18.101562 10.90625 18.515625 10.164062 18.515625 9.09375 C 18.515625 7.976562 17.941406 7.160156 16.796875 6.640625 C 15.660156 6.128906 14.273438 5.765625 12.640625 5.546875 L 15.421875 0 L 19.15625 0 L 17.484375 3.421875 C 19.035156 3.765625 20.359375 4.363281 21.453125 5.21875 C 22.546875 6.082031 23.09375 7.332031 23.09375 8.96875 Z M 23.09375 8.96875 "/></g></g></g><g fill="#004aad" fill-opacity="1"><g transform="translate(30.840931, 191.167444)"><g><path d="M 23.75 10.84375 C 23.75 12.050781 23.453125 13.179688 22.859375 14.234375 C 22.273438 15.285156 21.519531 16.195312 20.59375 16.96875 C 19.675781 17.75 18.628906 18.367188 17.453125 18.828125 C 16.273438 19.296875 15.117188 19.53125 13.984375 19.53125 C 13.148438 19.53125 12.300781 19.457031 11.4375 19.3125 C 10.570312 19.164062 9.769531 18.910156 9.03125 18.546875 C 8.300781 18.191406 7.640625 17.71875 7.046875 17.125 C 6.460938 16.539062 6.023438 15.8125 5.734375 14.9375 C 5.609375 14.632812 5.546875 14.335938 5.546875 14.046875 C 5.546875 13.421875 5.804688 12.863281 6.328125 12.375 C 6.859375 11.894531 7.414062 11.65625 8 11.65625 C 8.550781 11.65625 9.003906 11.8125 9.359375 12.125 C 9.710938 12.4375 10.097656 12.78125 10.515625 13.15625 C 10.941406 13.539062 11.445312 13.890625 12.03125 14.203125 C 12.625 14.523438 13.398438 14.6875 14.359375 14.6875 C 15.203125 14.6875 16.007812 14.421875 16.78125 13.890625 C 17.5625 13.367188 17.953125 12.625 17.953125 11.65625 C 17.953125 11.019531 17.734375 10.492188 17.296875 10.078125 C 16.859375 9.660156 16.34375 9.28125 15.75 8.9375 C 15.164062 8.601562 14.578125 8.289062 13.984375 8 C 13.398438 7.707031 12.957031 7.351562 12.65625 6.9375 C 12.28125 6.425781 12.101562 5.738281 12.125 4.875 C 12.144531 4.019531 12.15625 3.296875 12.15625 2.703125 L 12.15625 2.390625 C 9.976562 1.722656 8.140625 0.632812 6.640625 -0.875 C 5.148438 -2.394531 3.929688 -4.148438 2.984375 -6.140625 C 2.046875 -8.140625 1.363281 -10.289062 0.9375 -12.59375 C 0.519531 -14.90625 0.3125 -17.195312 0.3125 -19.46875 C 0.3125 -21.226562 0.476562 -23.160156 0.8125 -25.265625 C 1.15625 -27.367188 1.660156 -29.476562 2.328125 -31.59375 C 3.003906 -33.71875 3.851562 -35.765625 4.875 -37.734375 C 5.90625 -39.710938 7.113281 -41.457031 8.5 -42.96875 C 9.882812 -44.476562 11.445312 -45.695312 13.1875 -46.625 C 14.9375 -47.550781 16.863281 -48.015625 18.96875 -48.015625 C 21.019531 -48.015625 22.738281 -47.5 24.125 -46.46875 C 25.507812 -45.4375 26.625 -44.132812 27.46875 -42.5625 C 28.3125 -40.988281 28.898438 -39.265625 29.234375 -37.390625 C 29.566406 -35.523438 29.734375 -33.75 29.734375 -32.0625 C 29.734375 -31.269531 29.640625 -30.429688 29.453125 -29.546875 C 29.265625 -28.660156 28.957031 -27.835938 28.53125 -27.078125 C 28.113281 -26.328125 27.566406 -25.703125 26.890625 -25.203125 C 26.222656 -24.703125 25.410156 -24.453125 24.453125 -24.453125 C 22.972656 -24.453125 21.875 -24.710938 21.15625 -25.234375 C 20.445312 -25.753906 19.945312 -26.414062 19.65625 -27.21875 C 19.363281 -28.019531 19.207031 -28.867188 19.1875 -29.765625 C 19.164062 -30.671875 19.132812 -31.519531 19.09375 -32.3125 C 19.050781 -33.113281 18.910156 -33.773438 18.671875 -34.296875 C 18.441406 -34.828125 17.953125 -35.09375 17.203125 -35.09375 C 16.359375 -35.09375 15.617188 -34.785156 14.984375 -34.171875 C 14.359375 -33.566406 13.8125 -32.78125 13.34375 -31.8125 C 12.882812 -30.851562 12.5 -29.765625 12.1875 -28.546875 C 11.875 -27.328125 11.625 -26.117188 11.4375 -24.921875 C 11.25 -23.722656 11.113281 -22.585938 11.03125 -21.515625 C 10.945312 -20.441406 10.90625 -19.570312 10.90625 -18.90625 C 10.90625 -18.019531 10.9375 -16.96875 11 -15.75 C 11.0625 -14.53125 11.257812 -13.363281 11.59375 -12.25 C 11.925781 -11.132812 12.425781 -10.1875 13.09375 -9.40625 C 13.769531 -8.632812 14.738281 -8.25 16 -8.25 C 16.84375 -8.25 17.660156 -8.351562 18.453125 -8.5625 C 19.253906 -8.78125 20.050781 -9.023438 20.84375 -9.296875 C 21.644531 -9.566406 22.457031 -9.804688 23.28125 -10.015625 C 24.101562 -10.222656 24.929688 -10.328125 25.765625 -10.328125 C 26.734375 -10.328125 27.53125 -9.9375 28.15625 -9.15625 C 28.789062 -8.382812 29.109375 -7.515625 29.109375 -6.546875 C 29.109375 -5.285156 28.707031 -4.078125 27.90625 -2.921875 C 27.113281 -1.773438 26.117188 -0.769531 24.921875 0.09375 C 23.722656 0.957031 22.421875 1.660156 21.015625 2.203125 C 19.609375 2.753906 18.316406 3.050781 17.140625 3.09375 L 16.953125 3.84375 C 17.617188 4.09375 18.347656 4.445312 19.140625 4.90625 C 19.941406 5.375 20.675781 5.910156 21.34375 6.515625 C 22.019531 7.128906 22.585938 7.800781 23.046875 8.53125 C 23.515625 9.269531 23.75 10.039062 23.75 10.84375 Z M 23.75 10.84375 "/></g></g></g><g fill="#004aad" fill-opacity="1"><g transform="translate(61.206796, 191.167444)"><g><path d="M 33.703125 -9.328125 C 33.703125 -8.484375 33.628906 -7.472656 33.484375 -6.296875 C 33.335938 -5.117188 33.050781 -3.992188 32.625 -2.921875 C 32.207031 -1.859375 31.640625 -0.957031 30.921875 -0.21875 C 30.210938 0.507812 29.269531 0.875 28.09375 0.875 C 26.539062 0.875 25.375 0.3125 24.59375 -0.8125 C 23.820312 -1.945312 23.265625 -3.300781 22.921875 -4.875 C 22.585938 -6.457031 22.390625 -8.066406 22.328125 -9.703125 C 22.265625 -11.335938 22.210938 -12.640625 22.171875 -13.609375 C 19.148438 -13.109375 16.171875 -12.664062 13.234375 -12.28125 C 13.148438 -11.320312 12.96875 -10.125 12.6875 -8.6875 C 12.414062 -7.257812 11.992188 -5.882812 11.421875 -4.5625 C 10.859375 -3.238281 10.125 -2.09375 9.21875 -1.125 C 8.320312 -0.164062 7.222656 0.3125 5.921875 0.3125 C 4.910156 0.3125 4.117188 -0.0507812 3.546875 -0.78125 C 2.984375 -1.519531 2.554688 -2.394531 2.265625 -3.40625 C 1.972656 -4.414062 1.796875 -5.453125 1.734375 -6.515625 C 1.671875 -7.585938 1.640625 -8.484375 1.640625 -9.203125 C 1.640625 -11.597656 1.828125 -13.957031 2.203125 -16.28125 C 2.578125 -18.613281 3.019531 -20.9375 3.53125 -23.25 C 3.78125 -24.46875 4.113281 -25.894531 4.53125 -27.53125 C 4.957031 -29.164062 5.472656 -30.851562 6.078125 -32.59375 C 6.691406 -34.34375 7.40625 -36.066406 8.21875 -37.765625 C 9.039062 -39.472656 9.972656 -41 11.015625 -42.34375 C 12.066406 -43.6875 13.265625 -44.773438 14.609375 -45.609375 C 15.960938 -46.453125 17.457031 -46.875 19.09375 -46.875 C 20.6875 -46.875 22.070312 -46.515625 23.25 -45.796875 C 24.425781 -45.085938 25.453125 -44.144531 26.328125 -42.96875 C 27.210938 -41.789062 27.945312 -40.457031 28.53125 -38.96875 C 29.125 -37.476562 29.617188 -35.960938 30.015625 -34.421875 C 30.421875 -32.890625 30.757812 -31.390625 31.03125 -29.921875 C 31.300781 -28.453125 31.539062 -27.148438 31.75 -26.015625 C 32.300781 -23.285156 32.765625 -20.523438 33.140625 -17.734375 C 33.515625 -14.941406 33.703125 -12.140625 33.703125 -9.328125 Z M 21.546875 -24.640625 C 21.546875 -25.140625 21.515625 -25.96875 21.453125 -27.125 C 21.390625 -28.28125 21.253906 -29.4375 21.046875 -30.59375 C 20.835938 -31.75 20.507812 -32.773438 20.0625 -33.671875 C 19.625 -34.578125 19.023438 -35.03125 18.265625 -35.03125 C 17.847656 -35.03125 17.445312 -34.742188 17.0625 -34.171875 C 16.6875 -33.609375 16.351562 -32.894531 16.0625 -32.03125 C 15.769531 -31.175781 15.507812 -30.222656 15.28125 -29.171875 C 15.050781 -28.117188 14.847656 -27.109375 14.671875 -26.140625 C 14.503906 -25.179688 14.378906 -24.3125 14.296875 -23.53125 C 14.210938 -22.75 14.148438 -22.191406 14.109375 -21.859375 C 16.628906 -22.066406 19.109375 -22.382812 21.546875 -22.8125 Z M 21.546875 -24.640625 "/></g></g></g><g fill="#004aad" fill-opacity="1"><g transform="translate(97.116637, 191.167444)"><g><path d="M 44.984375 -6.875 C 44.859375 -5.78125 44.679688 -4.707031 44.453125 -3.65625 C 44.222656 -2.601562 43.9375 -1.664062 43.59375 -0.84375 C 43.257812 -0.03125 42.828125 0.613281 42.296875 1.09375 C 41.773438 1.582031 41.179688 1.828125 40.515625 1.828125 C 39.835938 1.828125 39.222656 1.3125 38.671875 0.28125 C 38.128906 -0.75 37.617188 -2.113281 37.140625 -3.8125 C 36.660156 -5.507812 36.21875 -7.429688 35.8125 -9.578125 C 35.414062 -11.722656 35.0625 -13.894531 34.75 -16.09375 C 34.4375 -18.300781 34.171875 -20.453125 33.953125 -22.546875 C 33.742188 -24.648438 33.578125 -26.476562 33.453125 -28.03125 C 33.203125 -26.4375 32.90625 -24.648438 32.5625 -22.671875 C 32.226562 -20.703125 31.832031 -18.695312 31.375 -16.65625 C 30.914062 -14.625 30.410156 -12.628906 29.859375 -10.671875 C 29.316406 -8.722656 28.726562 -6.984375 28.09375 -5.453125 C 27.46875 -3.921875 26.796875 -2.691406 26.078125 -1.765625 C 25.367188 -0.835938 24.613281 -0.375 23.8125 -0.375 C 23.101562 -0.375 22.390625 -0.859375 21.671875 -1.828125 C 20.960938 -2.796875 20.269531 -4.066406 19.59375 -5.640625 C 18.925781 -7.210938 18.296875 -8.960938 17.703125 -10.890625 C 17.117188 -12.828125 16.570312 -14.769531 16.0625 -16.71875 C 15.5625 -18.675781 15.117188 -20.523438 14.734375 -22.265625 C 14.359375 -24.015625 14.066406 -25.476562 13.859375 -26.65625 C 13.859375 -25.769531 13.847656 -24.789062 13.828125 -23.71875 C 13.804688 -22.644531 13.796875 -21.878906 13.796875 -21.421875 C 13.796875 -21.210938 13.785156 -20.519531 13.765625 -19.34375 C 13.742188 -18.164062 13.671875 -16.753906 13.546875 -15.109375 C 13.421875 -13.472656 13.226562 -11.722656 12.96875 -9.859375 C 12.71875 -7.992188 12.351562 -6.257812 11.875 -4.65625 C 11.394531 -3.0625 10.796875 -1.71875 10.078125 -0.625 C 9.367188 0.46875 8.488281 1.054688 7.4375 1.140625 C 6.59375 0.753906 5.882812 0.113281 5.3125 -0.78125 C 4.75 -1.6875 4.28125 -2.75 3.90625 -3.96875 C 3.53125 -5.1875 3.234375 -6.488281 3.015625 -7.875 C 2.804688 -9.257812 2.640625 -10.613281 2.515625 -11.9375 C 2.390625 -13.257812 2.316406 -14.488281 2.296875 -15.625 C 2.273438 -16.757812 2.265625 -17.679688 2.265625 -18.390625 C 2.265625 -19.648438 2.335938 -21.234375 2.484375 -23.140625 C 2.628906 -25.054688 2.867188 -27.066406 3.203125 -29.171875 C 3.546875 -31.273438 3.988281 -33.375 4.53125 -35.46875 C 5.082031 -37.570312 5.742188 -39.453125 6.515625 -41.109375 C 7.296875 -42.765625 8.203125 -44.117188 9.234375 -45.171875 C 10.265625 -46.222656 11.453125 -46.75 12.796875 -46.75 C 13.421875 -46.75 14.085938 -46.390625 14.796875 -45.671875 C 15.515625 -44.960938 16.226562 -44.03125 16.9375 -42.875 C 17.65625 -41.71875 18.347656 -40.425781 19.015625 -39 C 19.691406 -37.570312 20.332031 -36.132812 20.9375 -34.6875 C 21.550781 -33.238281 22.085938 -31.851562 22.546875 -30.53125 C 23.015625 -29.207031 23.394531 -28.082031 23.6875 -27.15625 C 24.019531 -28.164062 24.4375 -29.34375 24.9375 -30.6875 C 25.445312 -32.03125 26.003906 -33.425781 26.609375 -34.875 C 27.222656 -36.320312 27.894531 -37.75 28.625 -39.15625 C 29.363281 -40.5625 30.128906 -41.820312 30.921875 -42.9375 C 31.722656 -44.050781 32.535156 -44.953125 33.359375 -45.640625 C 34.179688 -46.335938 35.007812 -46.6875 35.84375 -46.6875 C 37.3125 -46.6875 38.570312 -46.140625 39.625 -45.046875 C 40.675781 -43.953125 41.554688 -42.535156 42.265625 -40.796875 C 42.984375 -39.054688 43.550781 -37.101562 43.96875 -34.9375 C 44.394531 -32.769531 44.722656 -30.625 44.953125 -28.5 C 45.179688 -26.382812 45.328125 -24.398438 45.390625 -22.546875 C 45.453125 -20.703125 45.484375 -19.210938 45.484375 -18.078125 C 45.484375 -17.617188 45.484375 -16.988281 45.484375 -16.1875 C 45.484375 -15.394531 45.472656 -14.492188 45.453125 -13.484375 C 45.429688 -12.472656 45.378906 -11.398438 45.296875 -10.265625 C 45.210938 -9.128906 45.109375 -8 44.984375 -6.875 Z M 44.984375 -6.875 "/></g></g></g><g fill="#004aad" fill-opacity="1"><g transform="translate(145.185425, 191.167444)"><g><path d="M 33.703125 -9.328125 C 33.703125 -8.484375 33.628906 -7.472656 33.484375 -6.296875 C 33.335938 -5.117188 33.050781 -3.992188 32.625 -2.921875 C 32.207031 -1.859375 31.640625 -0.957031 30.921875 -0.21875 C 30.210938 0.507812 29.269531 0.875 28.09375 0.875 C 26.539062 0.875 25.375 0.3125 24.59375 -0.8125 C 23.820312 -1.945312 23.265625 -3.300781 22.921875 -4.875 C 22.585938 -6.457031 22.390625 -8.066406 22.328125 -9.703125 C 22.265625 -11.335938 22.210938 -12.640625 22.171875 -13.609375 C 19.148438 -13.109375 16.171875 -12.664062 13.234375 -12.28125 C 13.148438 -11.320312 12.96875 -10.125 12.6875 -8.6875 C 12.414062 -7.257812 11.992188 -5.882812 11.421875 -4.5625 C 10.859375 -3.238281 10.125 -2.09375 9.21875 -1.125 C 8.320312 -0.164062 7.222656 0.3125 5.921875 0.3125 C 4.910156 0.3125 4.117188 -0.0507812 3.546875 -0.78125 C 2.984375 -1.519531 2.554688 -2.394531 2.265625 -3.40625 C 1.972656 -4.414062 1.796875 -5.453125 1.734375 -6.515625 C 1.671875 -7.585938 1.640625 -8.484375 1.640625 -9.203125 C 1.640625 -11.597656 1.828125 -13.957031 2.203125 -16.28125 C 2.578125 -18.613281 3.019531 -20.9375 3.53125 -23.25 C 3.78125 -24.46875 4.113281 -25.894531 4.53125 -27.53125 C 4.957031 -29.164062 5.472656 -30.851562 6.078125 -32.59375 C 6.691406 -34.34375 7.40625 -36.066406 8.21875 -37.765625 C 9.039062 -39.472656 9.972656 -41 11.015625 -42.34375 C 12.066406 -43.6875 13.265625 -44.773438 14.609375 -45.609375 C 15.960938 -46.453125 17.457031 -46.875 19.09375 -46.875 C 20.6875 -46.875 22.070312 -46.515625 23.25 -45.796875 C 24.425781 -45.085938 25.453125 -44.144531 26.328125 -42.96875 C 27.210938 -41.789062 27.945312 -40.457031 28.53125 -38.96875 C 29.125 -37.476562 29.617188 -35.960938 30.015625 -34.421875 C 30.421875 -32.890625 30.757812 -31.390625 31.03125 -29.921875 C 31.300781 -28.453125 31.539062 -27.148438 31.75 -26.015625 C 32.300781 -23.285156 32.765625 -20.523438 33.140625 -17.734375 C 33.515625 -14.941406 33.703125 -12.140625 33.703125 -9.328125 Z M 21.546875 -24.640625 C 21.546875 -25.140625 21.515625 -25.96875 21.453125 -27.125 C 21.390625 -28.28125 21.253906 -29.4375 21.046875 -30.59375 C 20.835938 -31.75 20.507812 -32.773438 20.0625 -33.671875 C 19.625 -34.578125 19.023438 -35.03125 18.265625 -35.03125 C 17.847656 -35.03125 17.445312 -34.742188 17.0625 -34.171875 C 16.6875 -33.609375 16.351562 -32.894531 16.0625 -32.03125 C 15.769531 -31.175781 15.507812 -30.222656 15.28125 -29.171875 C 15.050781 -28.117188 14.847656 -27.109375 14.671875 -26.140625 C 14.503906 -25.179688 14.378906 -24.3125 14.296875 -23.53125 C 14.210938 -22.75 14.148438 -22.191406 14.109375 -21.859375 C 16.628906 -22.066406 19.109375 -22.382812 21.546875 -22.8125 Z M 21.546875 -24.640625 "/></g></g></g><g fill="#004aad" fill-opacity="1"><g transform="translate(181.095268, 191.167444)"><g><path d="M 32.390625 -12.328125 C 32.390625 -8.234375 30.90625 -5.046875 27.9375 -2.765625 C 24.96875 -0.492188 20.96875 0.640625 15.9375 0.640625 C 13.351562 0.640625 10.960938 0.445312 8.765625 0.0625 C 6.578125 -0.320312 4.753906 -0.859375 3.296875 -1.546875 L 3.296875 -7.09375 C 4.835938 -6.40625 6.757812 -5.78125 9.0625 -5.21875 C 11.363281 -4.664062 13.738281 -4.390625 16.1875 -4.390625 C 19.59375 -4.390625 22.175781 -5.054688 23.9375 -6.390625 C 25.695312 -7.722656 26.578125 -9.53125 26.578125 -11.8125 C 26.578125 -13.3125 26.253906 -14.578125 25.609375 -15.609375 C 24.960938 -16.640625 23.84375 -17.582031 22.25 -18.4375 C 20.664062 -19.300781 18.492188 -20.253906 15.734375 -21.296875 C 11.785156 -22.710938 8.820312 -24.453125 6.84375 -26.515625 C 4.863281 -28.578125 3.875 -31.394531 3.875 -34.96875 C 3.875 -37.375 4.492188 -39.457031 5.734375 -41.21875 C 6.984375 -42.988281 8.703125 -44.34375 10.890625 -45.28125 C 13.085938 -46.226562 15.648438 -46.703125 18.578125 -46.703125 C 21.078125 -46.703125 23.378906 -46.46875 25.484375 -46 C 27.585938 -45.53125 29.523438 -44.90625 31.296875 -44.125 L 29.484375 -39.15625 C 27.890625 -39.84375 26.144531 -40.421875 24.25 -40.890625 C 22.363281 -41.367188 20.429688 -41.609375 18.453125 -41.609375 C 15.566406 -41.609375 13.390625 -40.992188 11.921875 -39.765625 C 10.460938 -38.546875 9.734375 -36.925781 9.734375 -34.90625 C 9.734375 -33.351562 10.054688 -32.0625 10.703125 -31.03125 C 11.347656 -30 12.398438 -29.0625 13.859375 -28.21875 C 15.328125 -27.382812 17.3125 -26.515625 19.8125 -25.609375 C 22.519531 -24.617188 24.804688 -23.550781 26.671875 -22.40625 C 28.546875 -21.269531 29.96875 -19.90625 30.9375 -18.3125 C 31.90625 -16.726562 32.390625 -14.734375 32.390625 -12.328125 Z M 23.09375 8.96875 C 23.09375 11.03125 22.296875 12.628906 20.703125 13.765625 C 19.117188 14.910156 16.734375 15.484375 13.546875 15.484375 C 12.171875 15.484375 11.097656 15.375 10.328125 15.15625 L 10.328125 11.609375 C 10.710938 11.691406 11.226562 11.765625 11.875 11.828125 C 12.519531 11.898438 13.144531 11.9375 13.75 11.9375 C 15.289062 11.9375 16.46875 11.726562 17.28125 11.3125 C 18.101562 10.90625 18.515625 10.164062 18.515625 9.09375 C 18.515625 7.976562 17.941406 7.160156 16.796875 6.640625 C 15.660156 6.128906 14.273438 5.765625 12.640625 5.546875 L 15.421875 0 L 19.15625 0 L 17.484375 3.421875 C 19.035156 3.765625 20.359375 4.363281 21.453125 5.21875 C 22.546875 6.082031 23.09375 7.332031 23.09375 8.96875 Z M 23.09375 8.96875 "/></g></g></g><g fill="#004aad" fill-opacity="1"><g transform="translate(216.512231, 191.167444)"><g><path d="M 23.6875 -42.78125 C 23.6875 -41.976562 23.507812 -41.257812 23.15625 -40.625 C 22.800781 -40 22.328125 -39.46875 21.734375 -39.03125 C 21.148438 -38.59375 20.5 -38.222656 19.78125 -37.921875 C 19.070312 -37.628906 18.378906 -37.421875 17.703125 -37.296875 C 17.617188 -32.546875 17.441406 -27.96875 17.171875 -23.5625 C 16.898438 -19.15625 16.46875 -14.597656 15.875 -9.890625 L 16.25 -9.890625 C 16.925781 -9.890625 17.585938 -9.816406 18.234375 -9.671875 C 18.890625 -9.523438 19.476562 -9.269531 20 -8.90625 C 20.53125 -8.550781 20.953125 -8.109375 21.265625 -7.578125 C 21.578125 -7.054688 21.734375 -6.421875 21.734375 -5.671875 C 21.734375 -4.703125 21.425781 -3.859375 20.8125 -3.140625 C 20.207031 -2.429688 19.410156 -1.820312 18.421875 -1.3125 C 17.441406 -0.8125 16.34375 -0.394531 15.125 -0.0625 C 13.90625 0.269531 12.6875 0.53125 11.46875 0.71875 C 10.25 0.914062 9.09375 1.054688 8 1.140625 C 6.90625 1.222656 6.023438 1.265625 5.359375 1.265625 C 4.847656 1.265625 4.222656 1.242188 3.484375 1.203125 C 2.753906 1.160156 2.0625 1.03125 1.40625 0.8125 C 0.757812 0.601562 0.207031 0.289062 -0.25 -0.125 C -0.707031 -0.539062 -0.9375 -1.109375 -0.9375 -1.828125 C -0.9375 -2.710938 -0.757812 -3.5 -0.40625 -4.1875 C -0.0507812 -4.882812 0.414062 -5.503906 1 -6.046875 C 1.59375 -6.597656 2.253906 -7.039062 2.984375 -7.375 C 3.722656 -7.707031 4.472656 -7.957031 5.234375 -8.125 C 5.523438 -10.4375 5.796875 -12.734375 6.046875 -15.015625 C 6.296875 -17.304688 6.460938 -19.628906 6.546875 -21.984375 C 6.628906 -24.378906 6.710938 -26.742188 6.796875 -29.078125 C 6.890625 -31.410156 6.976562 -33.75 7.0625 -36.09375 C 6.757812 -36.050781 6.484375 -36.019531 6.234375 -36 C 5.984375 -35.976562 5.753906 -35.96875 5.546875 -35.96875 C 4.953125 -35.96875 4.316406 -36.03125 3.640625 -36.15625 C 2.972656 -36.289062 2.34375 -36.515625 1.75 -36.828125 C 1.164062 -37.140625 0.675781 -37.523438 0.28125 -37.984375 C -0.113281 -38.453125 -0.3125 -39.039062 -0.3125 -39.75 C -0.3125 -41.175781 0.285156 -42.351562 1.484375 -43.28125 C 2.679688 -44.207031 4.109375 -44.921875 5.765625 -45.421875 C 7.421875 -45.929688 9.109375 -46.28125 10.828125 -46.46875 C 12.554688 -46.65625 13.945312 -46.75 15 -46.75 C 15.582031 -46.75 16.359375 -46.707031 17.328125 -46.625 C 18.296875 -46.539062 19.25 -46.347656 20.1875 -46.046875 C 21.132812 -45.753906 21.953125 -45.359375 22.640625 -44.859375 C 23.335938 -44.359375 23.6875 -43.664062 23.6875 -42.78125 Z M 23.6875 -42.78125 "/></g></g></g><g fill="#004aad" fill-opacity="1"><g transform="translate(239.192142, 191.167444)"><g><path d="M 32.640625 -33.140625 C 32.640625 -30.242188 31.96875 -27.640625 30.625 -25.328125 C 29.28125 -23.015625 27.492188 -20.976562 25.265625 -19.21875 C 25.929688 -18.207031 26.625 -17.03125 27.34375 -15.6875 C 28.0625 -14.34375 28.703125 -12.925781 29.265625 -11.4375 C 29.828125 -9.945312 30.285156 -8.453125 30.640625 -6.953125 C 31.003906 -5.460938 31.1875 -4.085938 31.1875 -2.828125 C 31.1875 -1.484375 30.859375 -0.28125 30.203125 0.78125 C 29.554688 1.851562 28.457031 2.390625 26.90625 2.390625 C 25.601562 2.390625 24.476562 1.757812 23.53125 0.5 C 22.582031 -0.757812 21.738281 -2.257812 21 -4 C 20.269531 -5.738281 19.597656 -7.507812 18.984375 -9.3125 C 18.378906 -11.125 17.804688 -12.578125 17.265625 -13.671875 C 16.503906 -13.421875 15.765625 -13.132812 15.046875 -12.8125 C 14.335938 -12.5 13.609375 -12.195312 12.859375 -11.90625 C 12.816406 -10.976562 12.738281 -9.707031 12.625 -8.09375 C 12.519531 -6.476562 12.289062 -4.867188 11.9375 -3.265625 C 11.582031 -1.671875 11.046875 -0.289062 10.328125 0.875 C 9.617188 2.050781 8.632812 2.640625 7.375 2.640625 C 5.988281 2.640625 4.914062 2.070312 4.15625 0.9375 C 3.40625 -0.1875 2.867188 -1.523438 2.546875 -3.078125 C 2.234375 -4.640625 2.054688 -6.226562 2.015625 -7.84375 C 1.972656 -9.457031 1.953125 -10.726562 1.953125 -11.65625 C 1.953125 -13.625 1.992188 -15.5625 2.078125 -17.46875 C 2.160156 -19.382812 2.203125 -21.332031 2.203125 -23.3125 C 2.203125 -25.113281 2.171875 -26.914062 2.109375 -28.71875 C 2.046875 -30.53125 2.015625 -32.359375 2.015625 -34.203125 C 2.015625 -34.628906 2.015625 -35.164062 2.015625 -35.8125 C 2.015625 -36.46875 2.046875 -37.140625 2.109375 -37.828125 C 2.171875 -38.523438 2.242188 -39.1875 2.328125 -39.8125 C 2.410156 -40.445312 2.554688 -40.953125 2.765625 -41.328125 C 3.191406 -42.210938 4.148438 -43.050781 5.640625 -43.84375 C 7.128906 -44.644531 8.765625 -45.347656 10.546875 -45.953125 C 12.335938 -46.566406 14.082031 -47.050781 15.78125 -47.40625 C 17.476562 -47.769531 18.75 -47.953125 19.59375 -47.953125 C 21.738281 -47.953125 23.628906 -47.550781 25.265625 -46.75 C 26.898438 -45.945312 28.265625 -44.863281 29.359375 -43.5 C 30.453125 -42.132812 31.269531 -40.554688 31.8125 -38.765625 C 32.363281 -36.984375 32.640625 -35.109375 32.640625 -33.140625 Z M 20.984375 -32.265625 C 20.984375 -33.347656 20.726562 -34.171875 20.21875 -34.734375 C 19.71875 -35.304688 18.898438 -35.59375 17.765625 -35.59375 C 16.921875 -35.59375 16.066406 -35.445312 15.203125 -35.15625 C 14.347656 -34.863281 13.566406 -34.523438 12.859375 -34.140625 C 13.023438 -30.828125 13.085938 -27.53125 13.046875 -24.25 C 13.921875 -24.550781 14.820312 -24.929688 15.75 -25.390625 C 16.675781 -25.847656 17.523438 -26.410156 18.296875 -27.078125 C 19.078125 -27.753906 19.71875 -28.515625 20.21875 -29.359375 C 20.726562 -30.203125 20.984375 -31.171875 20.984375 -32.265625 Z M 20.984375 -32.265625 "/></g></g></g><g fill="#004aad" fill-opacity="1"><g transform="translate(272.141008, 191.167444)"><g><path d="M 29.359375 -9.890625 C 29.359375 -9.085938 29.148438 -8.3125 28.734375 -7.5625 C 28.304688 -6.84375 27.316406 -6 25.765625 -5.03125 C 24.210938 -4.070312 22.488281 -3.160156 20.59375 -2.296875 C 18.707031 -1.441406 16.878906 -0.707031 15.109375 -0.09375 C 13.347656 0.507812 12.050781 0.8125 11.21875 0.8125 C 10.625 0.8125 9.925781 0.675781 9.125 0.40625 C 8.332031 0.132812 7.535156 -0.207031 6.734375 -0.625 C 5.941406 -1.050781 5.21875 -1.535156 4.5625 -2.078125 C 3.914062 -2.617188 3.445312 -3.144531 3.15625 -3.65625 C 2.976562 -3.945312 2.816406 -4.53125 2.671875 -5.40625 C 2.523438 -6.289062 2.398438 -7.320312 2.296875 -8.5 C 2.191406 -9.675781 2.097656 -10.925781 2.015625 -12.25 C 1.929688 -13.570312 1.859375 -14.832031 1.796875 -16.03125 C 1.734375 -17.226562 1.691406 -18.289062 1.671875 -19.21875 C 1.648438 -20.144531 1.640625 -20.816406 1.640625 -21.234375 C 1.640625 -22.785156 1.691406 -24.566406 1.796875 -26.578125 C 1.898438 -28.597656 2.097656 -30.625 2.390625 -32.65625 C 2.679688 -34.695312 3.109375 -36.648438 3.671875 -38.515625 C 4.242188 -40.390625 5.015625 -41.976562 5.984375 -43.28125 C 6.273438 -43.65625 6.863281 -44.050781 7.75 -44.46875 C 8.632812 -44.894531 9.671875 -45.296875 10.859375 -45.671875 C 12.054688 -46.054688 13.347656 -46.414062 14.734375 -46.75 C 16.128906 -47.082031 17.46875 -47.363281 18.75 -47.59375 C 20.03125 -47.832031 21.191406 -48.023438 22.234375 -48.171875 C 23.285156 -48.316406 24.085938 -48.390625 24.640625 -48.390625 C 25.265625 -48.390625 25.859375 -48.25 26.421875 -47.96875 C 26.992188 -47.695312 27.476562 -47.332031 27.875 -46.875 C 28.28125 -46.414062 28.597656 -45.898438 28.828125 -45.328125 C 29.054688 -44.765625 29.171875 -44.164062 29.171875 -43.53125 C 29.171875 -42.988281 29.097656 -42.523438 28.953125 -42.140625 C 28.804688 -41.765625 28.582031 -41.347656 28.28125 -40.890625 C 27.863281 -40.335938 26.984375 -39.679688 25.640625 -38.921875 C 24.296875 -38.171875 22.835938 -37.425781 21.265625 -36.6875 C 19.691406 -35.957031 18.175781 -35.296875 16.71875 -34.703125 C 15.269531 -34.117188 14.253906 -33.703125 13.671875 -33.453125 C 13.503906 -32.484375 13.328125 -31.503906 13.140625 -30.515625 C 12.953125 -29.535156 12.816406 -28.539062 12.734375 -27.53125 C 14.035156 -28.207031 15.503906 -28.835938 17.140625 -29.421875 C 18.773438 -30.015625 20.328125 -30.3125 21.796875 -30.3125 C 24.773438 -30.3125 26.265625 -28.835938 26.265625 -25.890625 C 26.265625 -25.179688 26.128906 -24.550781 25.859375 -24 C 25.585938 -23.457031 25.226562 -22.972656 24.78125 -22.546875 C 24.34375 -22.128906 23.835938 -21.765625 23.265625 -21.453125 C 22.703125 -21.140625 22.148438 -20.835938 21.609375 -20.546875 C 20.265625 -19.828125 18.859375 -19.203125 17.390625 -18.671875 C 15.921875 -18.148438 14.453125 -17.640625 12.984375 -17.140625 C 12.898438 -16.804688 12.8125 -16.4375 12.71875 -16.03125 C 12.632812 -15.632812 12.59375 -15.25 12.59375 -14.875 C 12.59375 -14.28125 12.632812 -13.6875 12.71875 -13.09375 C 12.8125 -12.507812 12.898438 -11.925781 12.984375 -11.34375 C 13.484375 -11.507812 14.289062 -11.78125 15.40625 -12.15625 C 16.519531 -12.539062 17.6875 -12.921875 18.90625 -13.296875 C 20.125 -13.671875 21.296875 -13.992188 22.421875 -14.265625 C 23.554688 -14.546875 24.398438 -14.6875 24.953125 -14.6875 C 25.578125 -14.6875 26.160156 -14.546875 26.703125 -14.265625 C 27.253906 -13.992188 27.71875 -13.632812 28.09375 -13.1875 C 28.476562 -12.75 28.785156 -12.238281 29.015625 -11.65625 C 29.242188 -11.070312 29.359375 -10.484375 29.359375 -9.890625 Z M 29.359375 -9.890625 "/></g></g></g><g fill="#004aad" fill-opacity="1"><g transform="translate(302.443863, 191.167444)"><g><path d="M 32.265625 -41.703125 C 32.265625 -40.191406 32.070312 -38.5 31.6875 -36.625 C 31.3125 -34.757812 30.835938 -32.859375 30.265625 -30.921875 C 29.703125 -28.992188 29.09375 -27.117188 28.4375 -25.296875 C 27.789062 -23.472656 27.21875 -21.820312 26.71875 -20.34375 C 26.375 -19.425781 26.003906 -18.285156 25.609375 -16.921875 C 25.210938 -15.554688 24.75 -14.113281 24.21875 -12.59375 C 23.695312 -11.082031 23.117188 -9.570312 22.484375 -8.0625 C 21.859375 -6.550781 21.164062 -5.195312 20.40625 -4 C 19.65625 -2.800781 18.828125 -1.820312 17.921875 -1.0625 C 17.015625 -0.3125 16.039062 0.0625 15 0.0625 C 14.113281 0.0625 13.257812 -0.332031 12.4375 -1.125 C 11.625 -1.925781 10.847656 -2.945312 10.109375 -4.1875 C 9.378906 -5.425781 8.6875 -6.8125 8.03125 -8.34375 C 7.382812 -9.875 6.796875 -11.375 6.265625 -12.84375 C 5.742188 -14.320312 5.300781 -15.691406 4.9375 -16.953125 C 4.582031 -18.210938 4.320312 -19.175781 4.15625 -19.84375 C 3.3125 -23.125 2.507812 -26.429688 1.75 -29.765625 C 1 -33.109375 0.625 -36.457031 0.625 -39.8125 C 0.625 -40.65625 0.664062 -41.523438 0.75 -42.421875 C 0.832031 -43.328125 1.039062 -44.160156 1.375 -44.921875 C 1.71875 -45.679688 2.191406 -46.300781 2.796875 -46.78125 C 3.410156 -47.257812 4.265625 -47.5 5.359375 -47.5 C 6.273438 -47.5 7.125 -46.984375 7.90625 -45.953125 C 8.6875 -44.929688 9.390625 -43.597656 10.015625 -41.953125 C 10.648438 -40.316406 11.226562 -38.488281 11.75 -36.46875 C 12.269531 -34.457031 12.757812 -32.472656 13.21875 -30.515625 C 13.6875 -28.566406 14.128906 -26.742188 14.546875 -25.046875 C 14.972656 -23.347656 15.394531 -21.992188 15.8125 -20.984375 C 16.0625 -21.816406 16.425781 -23.039062 16.90625 -24.65625 C 17.394531 -26.28125 17.960938 -28.054688 18.609375 -29.984375 C 19.265625 -31.921875 19.976562 -33.90625 20.75 -35.9375 C 21.53125 -37.976562 22.351562 -39.828125 23.21875 -41.484375 C 24.082031 -43.140625 24.972656 -44.492188 25.890625 -45.546875 C 26.816406 -46.597656 27.765625 -47.125 28.734375 -47.125 C 29.441406 -47.125 30.023438 -46.957031 30.484375 -46.625 C 30.953125 -46.289062 31.3125 -45.847656 31.5625 -45.296875 C 31.8125 -44.753906 31.988281 -44.164062 32.09375 -43.53125 C 32.207031 -42.90625 32.265625 -42.296875 32.265625 -41.703125 Z M 32.265625 -41.703125 "/></g></g></g><g fill="#004aad" fill-opacity="1"><g transform="translate(333.754713, 191.167444)"><g><path d="M 19.21875 0 L 2.578125 0 L 2.578125 -3.359375 L 8 -4.578125 L 8 -41.421875 L 2.578125 -42.703125 L 2.578125 -46.0625 L 19.21875 -46.0625 L 19.21875 -42.703125 L 13.8125 -41.421875 L 13.8125 -4.578125 L 19.21875 -3.359375 Z M 11.15625 -59.03125 C 12.007812 -59.03125 12.769531 -58.738281 13.4375 -58.15625 C 14.101562 -57.582031 14.4375 -56.671875 14.4375 -55.421875 C 14.4375 -54.171875 14.101562 -53.253906 13.4375 -52.671875 C 12.769531 -52.097656 12.007812 -51.8125 11.15625 -51.8125 C 10.207031 -51.8125 9.410156 -52.097656 8.765625 -52.671875 C 8.117188 -53.253906 7.796875 -54.171875 7.796875 -55.421875 C 7.796875 -56.671875 8.117188 -57.582031 8.765625 -58.15625 C 9.410156 -58.738281 10.207031 -59.03125 11.15625 -59.03125 Z M 11.15625 -59.03125 "/></g></g></g><g fill="#7ed957" fill-opacity="1"><g transform="translate(59.851652, 262.379808)"><g><path d="M 3.546875 -11.828125 L 3.546875 -2.359375 L 7.625 -2.359375 L 7.625 0 L 0.859375 0 L 0.859375 -11.828125 Z M 3.546875 -11.828125 "/></g></g></g><g fill="#7ed957" fill-opacity="1"><g transform="translate(70.558848, 262.379808)"><g><path d="M 7.625 -11.828125 L 7.625 -9.453125 L 3.546875 -9.453125 L 3.546875 -7.109375 L 7.453125 -7.109375 L 7.453125 -4.75 L 3.546875 -4.75 L 3.546875 -2.359375 L 7.625 -2.359375 L 7.625 0 L 0.859375 0 L 0.859375 -11.828125 Z M 7.625 -11.828125 "/></g></g></g><g fill="#7ed957" fill-opacity="1"><g transform="translate(81.481021, 262.379808)"><g><path d="M 11.625 0 L 7.90625 0 L 3.546875 -5.015625 L 3.546875 0 L 0.859375 0 L 0.859375 -11.828125 L 3.546875 -11.828125 L 3.546875 -6.984375 L 7.609375 -11.828125 L 10.875 -11.828125 L 6.125 -6.21875 Z M 11.625 0 "/></g></g></g><g fill="#7ed957" fill-opacity="1"><g transform="translate(95.369951, 262.379808)"><g><path d="M 7.625 -11.828125 L 7.625 -9.453125 L 3.546875 -9.453125 L 3.546875 -7.109375 L 7.453125 -7.109375 L 7.453125 -4.75 L 3.546875 -4.75 L 3.546875 -2.359375 L 7.625 -2.359375 L 7.625 0 L 0.859375 0 L 0.859375 -11.828125 Z M 7.625 -11.828125 "/></g></g></g><g fill="#7ed957" fill-opacity="1"><g transform="translate(106.292123, 262.379808)"><g><path d="M 3.546875 -11.828125 L 3.546875 -2.359375 L 7.625 -2.359375 L 7.625 0 L 0.859375 0 L 0.859375 -11.828125 Z M 3.546875 -11.828125 "/></g></g></g><g fill="#7ed957" fill-opacity="1"><g transform="translate(116.999317, 262.379808)"><g><path d="M 7.625 -11.828125 L 7.625 -9.453125 L 3.546875 -9.453125 L 3.546875 -7.109375 L 7.453125 -7.109375 L 7.453125 -4.75 L 3.546875 -4.75 L 3.546875 -2.359375 L 7.625 -2.359375 L 7.625 0 L 0.859375 0 L 0.859375 -11.828125 Z M 7.625 -11.828125 "/></g></g></g><g fill="#7ed957" fill-opacity="1"><g transform="translate(127.921489, 262.379808)"><g><path d="M 0.859375 -11.828125 L 5.09375 -11.828125 C 6.226562 -11.828125 7.148438 -11.519531 7.859375 -10.90625 C 8.578125 -10.300781 8.9375 -9.4375 8.9375 -8.3125 C 8.9375 -7.4375 8.71875 -6.707031 8.28125 -6.125 C 7.851562 -5.539062 7.265625 -5.128906 6.515625 -4.890625 L 10.59375 0 L 7.171875 0 L 3.546875 -4.671875 L 3.546875 0 L 0.859375 0 Z M 3.546875 -6.578125 L 3.875 -6.578125 C 4.113281 -6.578125 4.316406 -6.582031 4.484375 -6.59375 C 4.660156 -6.601562 4.859375 -6.632812 5.078125 -6.6875 C 5.304688 -6.75 5.484375 -6.832031 5.609375 -6.9375 C 5.742188 -7.039062 5.859375 -7.191406 5.953125 -7.390625 C 6.054688 -7.585938 6.109375 -7.828125 6.109375 -8.109375 C 6.109375 -8.398438 6.054688 -8.644531 5.953125 -8.84375 C 5.859375 -9.050781 5.742188 -9.207031 5.609375 -9.3125 C 5.484375 -9.414062 5.304688 -9.492188 5.078125 -9.546875 C 4.859375 -9.609375 4.660156 -9.644531 4.484375 -9.65625 C 4.316406 -9.664062 4.113281 -9.671875 3.875 -9.671875 L 3.546875 -9.671875 Z M 3.546875 -6.578125 "/></g></g></g><g fill="#7ed957" fill-opacity="1"><g transform="translate(140.79283, 262.379808)"><g><path d="M 7.625 -11.828125 L 7.625 -9.453125 L 3.546875 -9.453125 L 3.546875 -7.109375 L 7.453125 -7.109375 L 7.453125 -4.75 L 3.546875 -4.75 L 3.546875 -2.359375 L 7.625 -2.359375 L 7.625 0 L 0.859375 0 L 0.859375 -11.828125 Z M 7.625 -11.828125 "/></g></g></g><g fill="#7ed957" fill-opacity="1"><g transform="translate(151.715002, 262.379808)"><g/></g></g><g fill="#7ed957" fill-opacity="1"><g transform="translate(158.237224, 262.379808)"><g><path d="M 7.625 -11.828125 L 7.625 -9.453125 L 3.546875 -9.453125 L 3.546875 -7.109375 L 7.453125 -7.109375 L 7.453125 -4.75 L 3.546875 -4.75 L 3.546875 -2.359375 L 7.625 -2.359375 L 7.625 0 L 0.859375 0 L 0.859375 -11.828125 Z M 7.625 -11.828125 "/></g></g></g><g fill="#7ed957" fill-opacity="1"><g transform="translate(169.159396, 262.379808)"><g><path d="M 3.546875 -11.828125 L 3.546875 -2.359375 L 7.625 -2.359375 L 7.625 0 L 0.859375 0 L 0.859375 -11.828125 Z M 3.546875 -11.828125 "/></g></g></g><g fill="#7ed957" fill-opacity="1"><g transform="translate(179.86659, 262.379808)"><g><path d="M 4.5625 0 L -0.40625 -11.828125 L 2.640625 -11.828125 L 5.609375 -4.0625 L 8.59375 -11.828125 L 11.640625 -11.828125 L 6.671875 0 Z M 4.5625 0 "/></g></g></g><g fill="#7ed957" fill-opacity="1"><g transform="translate(193.712522, 262.379808)"><g><path d="M 7.625 -11.828125 L 7.625 -9.453125 L 3.546875 -9.453125 L 3.546875 -7.109375 L 7.453125 -7.109375 L 7.453125 -4.75 L 3.546875 -4.75 L 3.546875 -2.359375 L 7.625 -2.359375 L 7.625 0 L 0.859375 0 L 0.859375 -11.828125 Z M 7.625 -11.828125 "/></g></g></g><g fill="#7ed957" fill-opacity="1"><g transform="translate(204.634694, 262.379808)"><g><path d="M 0.859375 -11.828125 L 4.28125 -11.828125 C 5.925781 -11.828125 7.332031 -11.265625 8.5 -10.140625 C 9.664062 -9.015625 10.25 -7.609375 10.25 -5.921875 C 10.25 -4.210938 9.664062 -2.796875 8.5 -1.671875 C 7.34375 -0.554688 5.9375 0 4.28125 0 L 0.859375 0 Z M 3.546875 -2.40625 L 3.96875 -2.40625 C 4.945312 -2.40625 5.75 -2.738281 6.375 -3.40625 C 7.007812 -4.070312 7.332031 -4.90625 7.34375 -5.90625 C 7.34375 -6.90625 7.023438 -7.738281 6.390625 -8.40625 C 5.765625 -9.070312 4.957031 -9.40625 3.96875 -9.40625 L 3.546875 -9.40625 Z M 3.546875 -2.40625 "/></g></g></g><g fill="#7ed957" fill-opacity="1"><g transform="translate(217.821342, 262.379808)"><g><path d="M 6.859375 -11.828125 L 11.640625 0 L 8.734375 0 L 7.859375 -2.359375 L 3.359375 -2.359375 L 2.5 0 L -0.40625 0 L 4.375 -11.828125 Z M 6.953125 -4.734375 L 5.625 -8.171875 L 5.609375 -8.171875 L 4.28125 -4.734375 Z M 6.953125 -4.734375 "/></g></g></g><g fill="#7ed957" fill-opacity="1"><g transform="translate(231.667273, 262.379808)"><g><path d="M 2.5 -3.0625 C 2.957031 -3.0625 3.34375 -2.898438 3.65625 -2.578125 C 3.976562 -2.265625 4.140625 -1.878906 4.140625 -1.421875 C 4.140625 -0.00390625 3.335938 1.363281 1.734375 2.6875 L 1 2.09375 C 1.070312 2.03125 1.15625 1.941406 1.25 1.828125 C 1.351562 1.710938 1.5 1.476562 1.6875 1.125 C 1.882812 0.78125 2.019531 0.4375 2.09375 0.09375 C 1.726562 0 1.429688 -0.179688 1.203125 -0.453125 C 0.972656 -0.722656 0.859375 -1.046875 0.859375 -1.421875 C 0.859375 -1.878906 1.015625 -2.265625 1.328125 -2.578125 C 1.648438 -2.898438 2.039062 -3.0625 2.5 -3.0625 Z M 2.5 -3.0625 "/></g></g></g><g fill="#7ed957" fill-opacity="1"><g transform="translate(239.278727, 262.379808)"><g/></g></g><g fill="#7ed957" fill-opacity="1"><g transform="translate(245.800943, 262.379808)"><g><path d="M 0.109375 -9.453125 L 0.109375 -11.828125 L 8.421875 -11.828125 L 8.421875 -9.453125 L 5.609375 -9.453125 L 5.609375 0 L 2.921875 0 L 2.921875 -9.453125 Z M 0.109375 -9.453125 "/></g></g></g><g fill="#7ed957" fill-opacity="1"><g transform="translate(256.952432, 262.379808)"><g><path d="M 7.625 -11.828125 L 7.625 -9.453125 L 3.546875 -9.453125 L 3.546875 -7.109375 L 7.453125 -7.109375 L 7.453125 -4.75 L 3.546875 -4.75 L 3.546875 -2.359375 L 7.625 -2.359375 L 7.625 0 L 0.859375 0 L 0.859375 -11.828125 Z M 7.625 -11.828125 "/></g></g></g><g fill="#7ed957" fill-opacity="1"><g transform="translate(267.874603, 262.379808)"><g><path d="M 10.625 0 L 10.078125 -7 L 10 -7 L 7.578125 -0.078125 L 5.96875 -0.078125 L 3.546875 -7 L 3.484375 -7 L 2.921875 0 L 0.234375 0 L 1.296875 -11.828125 L 4.15625 -11.828125 L 6.78125 -5 L 9.40625 -11.828125 L 12.265625 -11.828125 L 13.328125 0 Z M 10.625 0 "/></g></g></g><g fill="#7ed957" fill-opacity="1"><g transform="translate(284.042335, 262.379808)"><g><path d="M 4.265625 0 L 0.578125 0 L 0.578125 -0.75 L 1.78125 -1.015625 L 1.78125 -9.203125 L 0.578125 -9.484375 L 0.578125 -10.234375 L 4.265625 -10.234375 L 4.265625 -9.484375 L 3.0625 -9.203125 L 3.0625 -1.015625 L 4.265625 -0.75 Z M 2.46875 -13.109375 C 2.664062 -13.109375 2.835938 -13.039062 2.984375 -12.90625 C 3.128906 -12.78125 3.203125 -12.578125 3.203125 -12.296875 C 3.203125 -12.023438 3.128906 -11.820312 2.984375 -11.6875 C 2.835938 -11.5625 2.664062 -11.5 2.46875 -11.5 C 2.257812 -11.5 2.082031 -11.5625 1.9375 -11.6875 C 1.800781 -11.820312 1.734375 -12.023438 1.734375 -12.296875 C 1.734375 -12.578125 1.800781 -12.78125 1.9375 -12.90625 C 2.082031 -13.039062 2.257812 -13.109375 2.46875 -13.109375 Z M 2.46875 -13.109375 "/></g></g></g><g fill="#7ed957" fill-opacity="1"><g transform="translate(291.510474, 262.379808)"><g><path d="M 10.796875 -11.828125 L 4.921875 -2.359375 L 10.40625 -2.359375 L 10.40625 0 L 0.234375 0 L 6.078125 -9.453125 L 1.0625 -9.453125 L 1.0625 -11.828125 Z M 10.796875 -11.828125 "/></g></g></g><g fill="#7ed957" fill-opacity="1"><g transform="translate(305.141417, 262.379808)"><g><path d="M 3.546875 -11.828125 L 3.546875 -2.359375 L 7.625 -2.359375 L 7.625 0 L 0.859375 0 L 0.859375 -11.828125 Z M 3.546875 -11.828125 "/></g></g></g><g fill="#7ed957" fill-opacity="1"><g transform="translate(315.848625, 262.379808)"><g><path d="M 4.265625 0 L 0.578125 0 L 0.578125 -0.75 L 1.78125 -1.015625 L 1.78125 -9.203125 L 0.578125 -9.484375 L 0.578125 -10.234375 L 4.265625 -10.234375 L 4.265625 -9.484375 L 3.0625 -9.203125 L 3.0625 -1.015625 L 4.265625 -0.75 Z M 2.46875 -13.109375 C 2.664062 -13.109375 2.835938 -13.039062 2.984375 -12.90625 C 3.128906 -12.78125 3.203125 -12.578125 3.203125 -12.296875 C 3.203125 -12.023438 3.128906 -11.820312 2.984375 -11.6875 C 2.835938 -11.5625 2.664062 -11.5 2.46875 -11.5 C 2.257812 -11.5 2.082031 -11.5625 1.9375 -11.6875 C 1.800781 -11.820312 1.734375 -12.023438 1.734375 -12.296875 C 1.734375 -12.578125 1.800781 -12.78125 1.9375 -12.90625 C 2.082031 -13.039062 2.257812 -13.109375 2.46875 -13.109375 Z M 2.46875 -13.109375 "/></g></g></g><g fill="#7ed957" fill-opacity="1"><g transform="translate(323.316764, 262.379808)"><g><path d="M 5.828125 -5.40625 L 9.375 -5.40625 L 9.375 -0.390625 C 8.820312 -0.203125 8.257812 -0.0664062 7.6875 0.015625 C 7.125 0.0976562 6.488281 0.140625 5.78125 0.140625 C 4.71875 0.140625 3.820312 -0.0664062 3.09375 -0.484375 C 2.363281 -0.910156 1.8125 -1.519531 1.4375 -2.3125 C 1.0625 -3.101562 0.875 -4.035156 0.875 -5.109375 C 0.875 -6.171875 1.082031 -7.09375 1.5 -7.875 C 1.914062 -8.664062 2.519531 -9.28125 3.3125 -9.71875 C 4.101562 -10.15625 5.054688 -10.375 6.171875 -10.375 C 6.742188 -10.375 7.285156 -10.320312 7.796875 -10.21875 C 8.304688 -10.113281 8.785156 -9.960938 9.234375 -9.765625 L 8.734375 -8.65625 C 8.378906 -8.8125 7.972656 -8.945312 7.515625 -9.0625 C 7.054688 -9.175781 6.585938 -9.234375 6.109375 -9.234375 C 4.878906 -9.234375 3.921875 -8.863281 3.234375 -8.125 C 2.554688 -7.382812 2.21875 -6.378906 2.21875 -5.109375 C 2.21875 -4.296875 2.347656 -3.578125 2.609375 -2.953125 C 2.878906 -2.328125 3.296875 -1.835938 3.859375 -1.484375 C 4.421875 -1.140625 5.160156 -0.96875 6.078125 -0.96875 C 6.523438 -0.96875 6.90625 -0.992188 7.21875 -1.046875 C 7.53125 -1.097656 7.816406 -1.15625 8.078125 -1.21875 L 8.078125 -4.25 L 5.828125 -4.25 Z M 8.09375 -13.15625 C 8.039062 -12.582031 7.820312 -12.117188 7.4375 -11.765625 C 7.050781 -11.410156 6.515625 -11.234375 5.828125 -11.234375 C 5.117188 -11.234375 4.582031 -11.40625 4.21875 -11.75 C 3.863281 -12.09375 3.671875 -12.5625 3.640625 -13.15625 L 4.40625 -13.15625 C 4.445312 -12.757812 4.585938 -12.507812 4.828125 -12.40625 C 5.078125 -12.300781 5.421875 -12.25 5.859375 -12.25 C 6.234375 -12.25 6.554688 -12.304688 6.828125 -12.421875 C 7.097656 -12.535156 7.253906 -12.78125 7.296875 -13.15625 Z M 8.09375 -13.15625 "/></g></g></g><g fill="#7ed957" fill-opacity="1"><g transform="translate(336.360096, 262.379808)"><g><path d="M 7.625 -11.828125 L 7.625 -9.453125 L 3.546875 -9.453125 L 3.546875 -7.109375 L 7.453125 -7.109375 L 7.453125 -4.75 L 3.546875 -4.75 L 3.546875 -2.359375 L 7.625 -2.359375 L 7.625 0 L 0.859375 0 L 0.859375 -11.828125 Z M 7.625 -11.828125 "/></g></g></g><g fill="#7ed957" fill-opacity="1"><g transform="translate(153.086021, 281.129806)"><g><path d="M 10.625 0 L 10.078125 -7 L 10 -7 L 7.578125 -0.078125 L 5.96875 -0.078125 L 3.546875 -7 L 3.484375 -7 L 2.921875 0 L 0.234375 0 L 1.296875 -11.828125 L 4.15625 -11.828125 L 6.78125 -5 L 9.40625 -11.828125 L 12.265625 -11.828125 L 13.328125 0 Z M 10.625 0 "/></g></g></g><g fill="#7ed957" fill-opacity="1"><g transform="translate(169.253753, 281.129806)"><g><path d="M 7.625 -11.828125 L 7.625 -9.453125 L 3.546875 -9.453125 L 3.546875 -7.109375 L 7.453125 -7.109375 L 7.453125 -4.75 L 3.546875 -4.75 L 3.546875 -2.359375 L 7.625 -2.359375 L 7.625 0 L 0.859375 0 L 0.859375 -11.828125 Z M 7.625 -11.828125 "/></g></g></g><g fill="#7ed957" fill-opacity="1"><g transform="translate(180.175927, 281.129806)"><g><path d="M 0.859375 -11.828125 L 5.09375 -11.828125 C 6.226562 -11.828125 7.148438 -11.519531 7.859375 -10.90625 C 8.578125 -10.300781 8.9375 -9.4375 8.9375 -8.3125 C 8.9375 -7.4375 8.71875 -6.707031 8.28125 -6.125 C 7.851562 -5.539062 7.265625 -5.128906 6.515625 -4.890625 L 10.59375 0 L 7.171875 0 L 3.546875 -4.671875 L 3.546875 0 L 0.859375 0 Z M 3.546875 -6.578125 L 3.875 -6.578125 C 4.113281 -6.578125 4.316406 -6.582031 4.484375 -6.59375 C 4.660156 -6.601562 4.859375 -6.632812 5.078125 -6.6875 C 5.304688 -6.75 5.484375 -6.832031 5.609375 -6.9375 C 5.742188 -7.039062 5.859375 -7.191406 5.953125 -7.390625 C 6.054688 -7.585938 6.109375 -7.828125 6.109375 -8.109375 C 6.109375 -8.398438 6.054688 -8.644531 5.953125 -8.84375 C 5.859375 -9.050781 5.742188 -9.207031 5.609375 -9.3125 C 5.484375 -9.414062 5.304688 -9.492188 5.078125 -9.546875 C 4.859375 -9.609375 4.660156 -9.644531 4.484375 -9.65625 C 4.316406 -9.664062 4.113281 -9.671875 3.875 -9.671875 L 3.546875 -9.671875 Z M 3.546875 -6.578125 "/></g></g></g><g fill="#7ed957" fill-opacity="1"><g transform="translate(193.047271, 281.129806)"><g><path d="M 3.546875 -4.75 L 3.546875 0 L 0.859375 0 L 0.859375 -11.828125 L 3.546875 -11.828125 L 3.546875 -7.109375 L 7.359375 -7.109375 L 7.359375 -11.828125 L 10.0625 -11.828125 L 10.0625 0 L 7.359375 0 L 7.359375 -4.75 Z M 3.546875 -4.75 "/></g></g></g><g fill="#7ed957" fill-opacity="1"><g transform="translate(206.577894, 281.129806)"><g><path d="M 6.859375 -11.828125 L 11.640625 0 L 8.734375 0 L 7.859375 -2.359375 L 3.359375 -2.359375 L 2.5 0 L -0.40625 0 L 4.375 -11.828125 Z M 6.953125 -4.734375 L 5.625 -8.171875 L 5.609375 -8.171875 L 4.28125 -4.734375 Z M 6.953125 -4.734375 "/></g></g></g><g fill="#7ed957" fill-opacity="1"><g transform="translate(220.423826, 281.129806)"><g><path d="M 0.859375 -11.828125 L 4.53125 -11.828125 C 5.632812 -11.828125 6.515625 -11.585938 7.171875 -11.109375 C 7.835938 -10.640625 8.171875 -9.875 8.171875 -8.8125 C 8.171875 -7.625 7.675781 -6.78125 6.6875 -6.28125 C 8.375 -5.976562 9.21875 -4.984375 9.21875 -3.296875 C 9.21875 -2.304688 8.875 -1.507812 8.1875 -0.90625 C 7.5 -0.300781 6.550781 0 5.34375 0 L 0.859375 0 Z M 3.546875 -7.1875 L 3.765625 -7.1875 C 4.367188 -7.1875 4.816406 -7.289062 5.109375 -7.5 C 5.410156 -7.71875 5.5625 -8.066406 5.5625 -8.546875 C 5.5625 -9.347656 4.960938 -9.75 3.765625 -9.75 L 3.546875 -9.75 Z M 3.546875 -2.078125 L 4.40625 -2.078125 C 5.71875 -2.078125 6.375 -2.515625 6.375 -3.390625 C 6.375 -3.921875 6.207031 -4.300781 5.875 -4.53125 C 5.550781 -4.757812 5.0625 -4.875 4.40625 -4.875 L 3.546875 -4.875 Z M 3.546875 -2.078125 "/></g></g></g><g fill="#7ed957" fill-opacity="1"><g transform="translate(232.578561, 281.129806)"><g><path d="M 6.859375 -11.828125 L 11.640625 0 L 8.734375 0 L 7.859375 -2.359375 L 3.359375 -2.359375 L 2.5 0 L -0.40625 0 L 4.375 -11.828125 Z M 6.953125 -4.734375 L 5.625 -8.171875 L 5.609375 -8.171875 L 4.28125 -4.734375 Z M 6.953125 -4.734375 "/></g></g></g><g fill="#7ed957" fill-opacity="1"><g transform="translate(246.424492, 281.129806)"><g><path d="M 1.578125 -3.875 L 1.234375 -12.328125 L 3.765625 -12.328125 L 3.421875 -3.875 Z M 2.5 -3.0625 C 2.957031 -3.0625 3.34375 -2.898438 3.65625 -2.578125 C 3.976562 -2.265625 4.140625 -1.878906 4.140625 -1.421875 C 4.140625 -0.972656 3.976562 -0.585938 3.65625 -0.265625 C 3.34375 0.0546875 2.957031 0.21875 2.5 0.21875 C 2.039062 0.21875 1.648438 0.0546875 1.328125 -0.265625 C 1.015625 -0.585938 0.859375 -0.972656 0.859375 -1.421875 C 0.859375 -1.878906 1.015625 -2.265625 1.328125 -2.578125 C 1.648438 -2.898438 2.039062 -3.0625 2.5 -3.0625 Z M 2.5 -3.0625 "/></g></g></g></svg>